<?xml version="1.0" encoding="UTF-8" standalone="no"?>
<!--
Iguana (c) by Marc Ammon, Moritz Fickenscher, Lukas Fridolin,
Michael Gunselmann, Katrin Raab, Christian Strate

Iguana is licensed under a
Creative Commons Attribution-ShareAlike 4.0 International License.

You should have received a copy of the license along with this
work. If not, see <http://creativecommons.org/licenses/by-sa/4.0/>.
-->
<!-- Created with Serif DrawPlus 11, 0, 3, 23 (Feb 25, 14:12:55) (http://www.serif.com) -->
<svg version="1.1" xmlns="http://www.w3.org/2000/svg" xmlns:xlink="http://www.w3.org/1999/xlink" width="618.789" height="352.141">
	<g id="dp_group001" transform="matrix(1,0,0,1,-3.14133,-3.39333)">
		<path id="dp_path002" fill="#00e5ff" fill-rule="evenodd" stroke="none" stroke-width="1.33333" d="M 403.523,10.7027 C 402.233,8.97067 398.084,5.60533 392.18,5.676 C 390.716,5.69333 234.881,5.59467 233.877,5.60933 C 227.428,5.7 223.964,9.108 223.2,9.99467 S 219.211,13.9707 219.084,19.968 C 219.065,20.8467 219.112,129.861 219.08,130.66 C 234.539,137.075 291.644,157.879 298.819,160.605 C 314.999,166.753 374.499,181.32 407.04,185.76 C 407.035,184.08 407.012,26.8653 407.052,24.7853 C 407.244,14.8747 405.361,13.1733 403.523,10.7027 Z "/>
		<path id="dp_path003" fill="#00e5ff" fill-rule="evenodd" stroke="none" stroke-width="1.33333" d="M 191.831,225.056 C 178.579,220.904 164.265,213.628 158.745,208.299 C 159.223,204.255 151.595,217.627 151.595,217.627 C 143.431,224.513 138.435,225.344 132.851,226.008 C 128.476,226.528 138.049,230.657 136.859,234.728 C 131.355,229.816 69.856,233.089 67.6827,234.149 C 81.1293,218.756 97.1453,229.259 114,221.855 C 125.637,219.8 125.763,212.997 129.895,207.627 C 133.976,202.321 138.656,197.776 138.795,189.627 C 131.583,187.897 114.173,180.648 109.895,159.527 C 106.359,156.255 79.8227,131.931 78.5213,124.631 C 85.5573,123.339 118.587,131.637 121.204,126.101 C 116.985,127.5 84.9493,118.76 76.8947,120.527 C 75.5293,109.413 85.8947,104.027 85.8947,104.027 C 89.3213,102.112 92.9667,93.0293 104.167,95.508 C 110.94,97.008 123.713,92.3067 136.923,101.58 C 137.052,101.624 152.899,82.252 160.465,84.124 C 162.837,84.7107 158.747,86.0267 156.16,88.1747 C 152.041,91.5947 145.365,102.131 146.715,106.467 C 149.168,101.396 168.563,87.8147 174.16,87.7747 C 178.424,87.744 171.827,90.9053 168.601,93.5147 C 159.649,100.756 156.847,107.771 156.413,112.187 C 159.808,107.512 179.841,97.1627 181.519,97.8733 C 183.788,98.8347 179.785,101.052 177.664,102.5 C 171.091,106.987 165.543,114.353 166.564,114.688 C 173.867,117.085 182.192,120.313 191.8,123.6 C 191.801,122.493 191.76,49.5987 191.76,18.6147 C 191.76,14.488 190.355,11.2413 187.18,8.03467 C 183.999,4.82133 179.215,4.10667 176.88,4.06 C 175.528,4.03333 19.448,4.024 18.7973,4.08533 C 18.0493,4.156 12.452,3.84267 7.98667,8.44533 C 4.08,12.472 3.81067,17.392 3.85067,18.6467 C 3.90267,20.2893 3.83333,337.839 3.808,339.392 C 3.75067,342.844 6.444,347.916 9.74533,350.279 C 13.3467,352.856 16.7173,353.263 20.352,353.28 C 20.9493,353.283 176.908,353.139 177.948,353.116 C 183.969,352.988 188.871,347.455 189.156,346.975 S 191.82,343.449 191.859,338.96 Z "/>
		<path id="dp_path004" fill="#00e5ff" fill-rule="evenodd" stroke="none" stroke-width="1.33333" d="M 436.025,349.128 C 437.265,350.785 441.427,354.551 447.697,354.555 C 455.719,354.56 602.399,354.505 604.712,354.516 C 607.68,354.529 611.625,354.4 615.779,350.879 C 618.519,348.555 620.611,344.485 620.711,339.973 C 622.015,281.127 620.721,24.036 620.711,20.2253 C 620.7,16.5187 619.611,13.6627 617.425,10.6787 S 610.788,5.184 605.304,5.24133 C 567.533,5.636 450.023,5.28933 447.36,5.31333 C 442.132,5.36133 438.592,7.97067 437.22,9.39467 S 432.685,14.6347 432.736,19.8867 C 432.749,21.2573 432.772,187.093 432.78,188.82 C 471.851,196.516 585.76,208.044 585.333,215.333 C 585.056,220.079 528.395,217.667 516.667,218.667 C 506.061,219.571 434.132,214.931 432.904,215.204 C 432.897,219.188 432.637,291.668 432.749,339.828 C 432.76,344.409 434.785,347.471 436.025,349.128 Z "/>
		<path id="dp_path005" fill="#00e5ff" fill-rule="evenodd" stroke="none" stroke-width="1.33333" d="M 406.976,213.504 C 384.424,212.505 341.879,208.192 319.443,212.596 C 317.36,213.005 321.911,219.984 319.823,220.428 C 332.124,224.92 365.692,232.716 363.6,240.255 C 357.247,238.804 294.072,229.973 298.4,239.055 C 293.697,238.539 290.575,235.656 300.653,221.707 C 299.191,220.024 297.315,216.703 294.521,217.752 C 279.107,223.541 244.745,229.089 219.023,228.291 C 219.06,230.023 219.24,333.357 219.055,338.704 C 218.793,346.252 222.563,349.592 223.547,350.752 S 229.541,354.761 233.78,354.84 C 234.864,354.86 390.632,354.883 392.163,354.867 C 396.903,354.819 400.697,353 403.343,349.964 C 406.317,346.551 406.98,342.899 407.008,341.007 C 407.039,338.909 407.025,215.512 406.976,213.504 Z "/>
	</g>
</svg>
